<svg xmlns="http://www.w3.org/2000/svg" viewBox="0 0 64 64"><title>Streamreed Wraps</title><defs><linearGradient id="metal" x2=".8" y2="1"><stop stop-color="#a4b886"/><stop offset="1" stop-color="#3c554a"/></linearGradient></defs><g fill="url(#metal)" stroke="#dfd0aa" stroke-width="1.8" stroke-linejoin="round" stroke-linecap="round"><path d="M18 8h28l4 46-14 5-4-29-4 29-14-5z"/><path d="M19 17h26M22 24l-2 21m22-21 2 21" fill="none"/><path d="m15 30 10-5 3 11-8 7zm21 6 3-11 10 5-5 13z" fill="#869b7a"/><path d="M15 49h12m10 0h12" fill="none"/><path d="M21 22v30m-6-27 12 9-12 7 12 8M43 22v30m6-27-12 9 12 7-12 8" fill="none"/></g></svg>
